<?xml version="1.0" standalone="no"?>
<!DOCTYPE svg PUBLIC "-//W3C//DTD SVG 20010904//EN"
 "http://www.w3.org/TR/2001/REC-SVG-20010904/DTD/svg10.dtd">
<svg version="1.0" xmlns="http://www.w3.org/2000/svg"
 width="1920.000000pt" height="1080.000000pt" viewBox="0 0 1920.000000 1080.000000"
 preserveAspectRatio="xMidYMid meet">
<metadata>
Created by potrace 1.16, written by Peter Selinger 2001-2019
</metadata>
<g transform="translate(0.000000,1080.000000) scale(0.100000,-0.100000)"
fill="#000000" stroke="none">
<path d="M10327 6783 c-4 -3 -24 -6 -46 -5 -50 2 -65 -16 -58 -68 3 -22 1 -43
-4 -46 -19 -11 -8 -25 34 -43 23 -10 48 -26 56 -35 18 -22 44 -20 59 4 7 11
19 20 26 20 42 0 62 70 26 92 -11 7 -20 20 -20 28 0 33 -55 72 -73 53z m41
-25 c7 -7 12 -22 12 -35 0 -13 9 -28 20 -35 22 -14 27 -46 8 -53 -35 -11 -53
-9 -52 6 1 11 -5 15 -17 12 -14 -4 -19 0 -19 17 0 19 -2 21 -16 9 -13 -11 -18
-10 -26 5 -8 14 -12 16 -18 5 -6 -9 -11 -5 -15 14 -11 42 0 60 32 53 16 -3 35
-2 43 4 20 13 34 12 48 -2z"/>
<path d="M9132 6691 c2 -6 39 -47 84 -93 171 -176 187 -197 181 -238 -2 -20
-12 -53 -22 -73 -16 -35 -16 -37 5 -64 l21 -27 -23 -17 c-22 -17 -24 -17 -48
5 -20 19 -33 22 -68 18 -48 -5 -29 -21 -251 211 -81 85 -109 104 -78 55 8 -12
17 -47 20 -77 8 -70 38 -131 94 -185 69 -68 122 -90 223 -93 84 -2 84 -2 118
-40 62 -71 137 -165 135 -170 -1 -2 -86 -92 -190 -200 -103 -107 -191 -200
-195 -207 -16 -24 -8 -82 15 -103 65 -60 106 -38 265 146 70 80 148 168 173
195 l45 48 178 -196 c98 -108 189 -205 203 -216 56 -44 133 -7 133 64 0 32
-18 54 -205 248 -113 117 -205 215 -205 218 0 3 51 63 113 134 l113 130 64 1
c223 6 381 291 231 417 -36 31 -126 53 -174 43 -154 -34 -252 -177 -224 -330
l7 -40 -120 -124 -121 -124 -64 69 c-35 38 -64 77 -65 86 0 11 -5 15 -14 12
-25 -10 -27 14 -5 78 16 47 20 77 16 117 -8 73 -58 171 -109 216 -43 36 -131
75 -172 75 -13 0 -35 9 -49 20 -27 22 -41 26 -35 11z m1101 -126 c35 -23 61
-93 52 -142 -15 -80 -66 -152 -138 -193 -44 -25 -63 -30 -123 -30 l-71 0 -100
-117 c-55 -65 -110 -127 -122 -137 -21 -19 -21 -19 -51 10 l-29 29 131 131
131 132 -12 32 c-39 112 34 251 155 296 49 18 142 12 177 -11z m-710 -493 l87
-88 -30 -29 c-16 -16 -31 -27 -33 -24 -2 2 -40 48 -85 101 l-82 97 22 15 c12
9 25 16 28 16 3 0 45 -40 93 -88z m62 -232 c26 -27 27 -31 14 -47 -65 -77
-245 -280 -293 -330 -48 -51 -65 -63 -91 -63 -38 0 -55 16 -55 50 0 21 41 69
191 223 105 108 194 197 198 197 4 0 20 -13 36 -30z m535 -406 c0 -29 -25 -54
-55 -54 -16 0 -45 25 -101 88 -42 48 -117 130 -164 182 -48 52 -100 110 -115
128 l-28 33 29 31 29 30 203 -208 c142 -145 202 -214 202 -230z"/>
<path d="M9983 6685 c-150 -46 -247 -173 -246 -320 1 -38 8 -88 16 -110 l16
-40 -6 60 c-10 115 45 250 132 318 63 50 142 80 224 85 51 3 69 8 56 13 -32
12 -146 9 -192 -6z"/>
<path d="M9064 6649 c-39 -11 -104 -81 -104 -112 0 -15 35 -57 109 -132 60
-60 115 -111 121 -113 13 -5 50 26 50 42 0 6 -47 61 -105 123 -58 61 -105 116
-105 122 0 33 33 10 131 -93 61 -64 115 -116 120 -116 13 0 51 40 47 50 -5 14
-219 240 -226 239 -4 0 -21 -5 -38 -10z"/>
<path d="M9800 4900 l0 -280 25 0 c22 0 25 4 25 35 l0 36 35 -35 c81 -81 227
-51 276 58 24 53 24 139 0 192 -50 109 -183 137 -272 57 l-39 -35 0 126 0 126
-25 0 -25 0 0 -280z m268 40 c86 -53 81 -212 -7 -264 -60 -35 -151 -16 -186
38 -21 31 -29 86 -21 130 8 39 48 93 80 106 38 16 100 11 134 -10z"/>
<path d="M10690 4900 l0 -280 25 0 c22 0 25 4 25 38 l0 37 18 -23 c32 -41 74
-62 127 -62 101 0 172 70 182 177 9 98 -23 165 -98 203 -68 35 -138 23 -196
-33 l-33 -31 0 127 0 127 -25 0 -25 0 0 -280z m259 46 c88 -46 93 -215 7 -267
-69 -42 -173 -13 -202 56 -56 136 72 274 195 211z"/>
<path d="M10349 5001 c-35 -11 -69 -30 -69 -39 1 -26 18 -32 53 -17 20 8 61
15 90 15 70 0 107 -26 107 -74 l0 -33 -89 -6 c-138 -9 -193 -41 -195 -116 -2
-78 46 -121 136 -121 56 0 108 23 140 63 17 22 18 22 18 -15 0 -33 3 -38 23
-38 22 0 22 1 22 143 0 161 -11 194 -75 228 -36 20 -113 24 -161 10z m186
-235 c-10 -49 -52 -92 -105 -106 -55 -15 -96 -4 -124 33 -19 26 -19 30 -5 55
8 15 27 33 42 40 31 15 178 31 190 21 5 -3 5 -23 2 -43z"/>
<path d="M11245 4991 c-132 -60 -154 -240 -42 -338 41 -36 86 -48 158 -41 60
6 114 45 144 104 37 74 17 193 -42 246 -53 48 -149 61 -218 29z m162 -51 c85
-51 91 -187 12 -254 -92 -78 -239 -5 -239 119 0 49 34 112 73 135 42 26 112
26 154 0z"/>
<path d="M11234 4855 c-8 -20 13 -79 34 -97 62 -54 152 -3 152 86 0 40 -26 32
-62 -19 l-32 -45 -14 27 c-30 58 -66 81 -78 48z"/>
<path d="M9434 4855 c-8 -20 13 -79 35 -99 13 -12 32 -16 62 -14 36 3 47 8 66
37 25 37 31 91 10 91 -17 0 -50 -35 -69 -74 l-15 -29 -12 33 c-20 60 -64 90
-77 55z"/>
<path d="M8440 4160 c0 -73 3 -90 15 -90 10 0 15 11 15 35 0 31 3 35 25 35 17
0 32 -10 47 -35 31 -47 58 -48 29 -1 -21 33 -21 33 -1 51 11 10 20 28 20 40 0
37 -30 55 -93 55 l-57 0 0 -90z"/>
<path d="M9070 4160 c0 -73 3 -90 15 -90 10 0 15 10 15 29 0 26 3 29 46 35 57
7 74 20 74 56 0 42 -28 60 -93 60 l-57 0 0 -90z"/>
<path d="M9511 4178 c30 -109 29 -108 44 -108 8 0 23 28 36 70 13 39 26 70 30
70 3 0 15 -30 25 -67 24 -83 46 -94 63 -31 6 24 17 64 25 91 12 37 12 47 2 47
-7 0 -20 -30 -30 -70 -10 -38 -22 -68 -26 -65 -4 3 -16 34 -25 70 -25 92 -45
89 -75 -12 l-23 -78 -21 78 c-11 42 -26 77 -33 77 -8 0 -6 -20 8 -72z"/>
<path d="M9950 4160 l0 -90 65 0 c58 0 66 3 81 25 15 22 15 27 1 48 -11 16
-12 28 -5 41 7 12 5 24 -6 42 -14 21 -24 24 -76 24 l-60 0 0 -90z"/>
</g>
</svg>
